<?xml version="1.0" standalone="no"?>
<!DOCTYPE svg PUBLIC "-//W3C//DTD SVG 20010904//EN"
 "http://www.w3.org/TR/2001/REC-SVG-20010904/DTD/svg10.dtd">
<svg version="1.0" xmlns="http://www.w3.org/2000/svg"
 width="377.000000pt" height="142.000000pt" viewBox="0 0 377.000000 142.000000"
 preserveAspectRatio="xMidYMid meet">

<g transform="translate(0.000000,142.000000) scale(0.100000,-0.100000)"
fill="#000000" stroke="none">
<path d="M700 1232 c-23 -18 -23 -21 -10 -80 12 -60 12 -62 -11 -81 -13 -11
-27 -20 -31 -21 -5 0 -8 -22 -8 -50 l0 -50 40 0 c39 0 40 1 40 36 l0 35 30
-21 c46 -33 80 -24 108 28 16 27 38 50 64 63 l40 20 -22 24 c-13 13 -57 35
-98 49 -42 14 -85 35 -97 46 -22 20 -22 20 -45 2z"/>
<path d="M1784 1203 c13 -27 9 -37 -85 -233 -54 -113 -98 -208 -99 -212 0 -15
68 -8 73 6 13 32 70 49 183 54 l112 5 13 -37 c12 -33 16 -36 51 -36 l37 0 -33
73 c-18 39 -69 147 -112 239 l-79 168 -38 0 -38 0 15 -27z m104 -223 l52 -100
-86 0 c-47 0 -94 -5 -105 -10 -10 -6 -19 -7 -19 -3 0 13 94 213 100 213 3 0
29 -45 58 -100z"/>
<path d="M2780 1226 c0 -3 5 -16 11 -29 9 -20 -2 -50 -90 -232 -56 -114 -101
-210 -101 -212 0 -1 16 -3 35 -3 23 0 37 6 44 19 16 29 66 42 183 48 l108 6
15 -37 c13 -32 19 -36 50 -36 19 0 35 3 35 8 0 4 -50 111 -110 237 l-110 230
-35 3 c-19 2 -35 1 -35 -2z m160 -341 c0 -3 -36 -5 -79 -5 -44 0 -91 -4 -105
-10 l-26 -10 14 33 c7 17 31 69 51 115 l38 82 54 -100 c29 -56 53 -103 53
-105z"/>
<path d="M1310 1215 c0 -4 7 -19 15 -35 14 -27 20 -30 65 -30 l50 0 0 -112 c0
-130 -10 -175 -45 -208 -33 -31 -118 -32 -170 -1 l-35 20 -15 -28 c-17 -35
-10 -43 55 -66 82 -29 172 -14 219 36 44 47 51 81 51 260 l0 169 -95 0 c-52 0
-95 -2 -95 -5z"/>
<path d="M2170 985 l0 -235 30 0 30 0 0 89 0 89 31 11 c18 6 66 11 106 11 125
0 176 39 176 135 0 109 -45 135 -237 135 l-136 0 0 -235z m294 149 c21 -21 20
-77 -1 -96 -12 -10 -48 -17 -108 -21 -49 -3 -98 -9 -107 -12 -16 -6 -18 1 -18
69 l0 76 109 0 c86 0 113 -3 125 -16z"/>
<path d="M3140 1212 c0 -5 9 -17 20 -27 19 -17 20 -31 20 -227 l0 -208 35 0
35 0 2 161 3 162 134 -162 c124 -150 136 -161 167 -161 l34 0 0 235 0 235 -35
0 -35 0 -2 -179 -3 -178 -149 178 c-146 175 -150 179 -188 179 -21 0 -38 -4
-38 -8z"/>
<path d="M689 913 c-34 -24 -35 -27 -54 -131 -17 -93 -18 -94 -73 -149 -49
-49 -57 -54 -67 -39 -19 26 -31 19 -50 -29 -19 -50 -38 -65 -87 -65 -56 -1
-141 -26 -190 -56 -27 -16 -48 -31 -48 -35 0 -3 14 -12 32 -21 31 -14 35 -13
104 19 103 47 134 44 134 -13 0 -46 22 -44 71 5 26 26 54 42 86 50 28 7 61 25
79 42 27 26 32 28 44 14 7 -8 10 -26 8 -40 -5 -25 -5 -24 32 8 l38 32 -6 88
c-3 53 0 114 8 156 11 60 11 74 -4 119 -10 29 -21 54 -25 56 -4 3 -19 -2 -32
-11z"/>
<path d="M2438 630 c-76 -23 -137 -91 -152 -168 -8 -44 10 -119 37 -159 49
-72 164 -110 247 -83 90 30 150 111 150 202 -1 148 -140 251 -282 208z m140
-64 c38 -20 68 -55 81 -98 23 -72 -24 -165 -95 -188 -48 -16 -124 -8 -157 16
-37 27 -67 86 -67 129 0 50 40 118 82 138 41 20 120 22 156 3z"/>
<path d="M1160 425 l0 -205 30 0 30 0 0 205 0 205 -30 0 -30 0 0 -205z"/>
<path d="M1329 601 c19 -27 21 -43 21 -205 l0 -176 30 0 29 0 3 140 3 140 65
-80 c36 -44 68 -79 72 -77 4 1 37 37 73 81 l65 78 0 -141 0 -141 30 0 30 0 0
178 c0 166 1 180 20 197 28 26 25 35 -14 35 -30 0 -41 -10 -117 -100 -46 -55
-87 -99 -90 -98 -4 2 -43 47 -88 101 -75 89 -85 97 -117 97 l-35 0 20 -29z"/>
<path d="M1890 425 l0 -205 25 0 c24 0 25 2 25 75 0 89 1 90 119 98 96 6 128
23 150 80 11 30 11 43 0 79 -21 65 -55 78 -201 78 l-118 0 0 -205z m254 129
c24 -23 20 -71 -6 -88 -14 -8 -59 -16 -110 -18 l-88 -4 0 63 0 63 94 0 c73 0
98 -4 110 -16z"/>
<path d="M2820 426 l0 -206 30 0 30 0 0 79 c0 88 2 91 86 91 40 0 41 -1 70
-61 34 -71 73 -109 115 -109 25 0 29 4 29 29 0 25 -5 30 -26 33 -20 2 -34 16
-55 54 l-29 51 37 24 c71 46 76 144 10 193 -25 18 -45 21 -163 24 l-134 4 0
-206z m270 124 c24 -24 25 -48 4 -78 -12 -18 -25 -22 -72 -22 -31 -1 -76 -5
-99 -9 l-43 -8 0 68 0 69 95 0 c82 0 98 -3 115 -20z"/>
<path d="M3240 600 l0 -30 75 0 75 0 0 -175 0 -175 30 0 30 0 0 175 0 175 70
0 70 0 0 30 0 30 -175 0 -175 0 0 -30z"/>
<path d="M277 385 c-45 -26 -69 -57 -61 -79 9 -24 21 -20 41 14 19 33 25 35
53 20 26 -14 33 2 18 38 l-13 29 -38 -22z"/>
<path d="M63 368 c-28 -13 -28 -25 -4 -57 18 -23 18 -27 3 -57 -12 -27 -13
-36 -2 -49 25 -30 47 -17 74 41 32 69 33 98 4 118 -26 18 -44 19 -75 4z"/>
</g>
</svg>
